<svg width="50" height="50" viewBox="0 0 50 50" fill="none" xmlns="http://www.w3.org/2000/svg">
<path d="M39.4237 46.6386L28.2701 41.9897L24.588 48.4259C23.8848 49.6565 22.4394 50.2621 21.072 49.9007C19.7047 49.5393 18.7475 48.2989 18.7475 46.8828V38.0244L1.91951 31.0119C0.815871 30.5528 0.0736011 29.5176 0.00523415 28.326C-0.0631328 27.1345 0.542403 26.0113 1.57767 25.4156L2.34924 26.7731C1.83161 27.0661 1.52884 27.6326 1.56791 28.2284C1.60697 28.8241 1.97811 29.3418 2.52504 29.5762L19.021 36.4519L46.8366 1.56526C46.5827 1.57502 46.3287 1.64339 46.0943 1.77036L2.33948 26.7731L1.56791 25.4156L45.3228 0.412785C46.1334 -0.0462504 47.0808 -0.124384 47.9305 0.188151C48.1746 0.276051 48.4188 0.403018 48.6434 0.549519C48.7704 0.637419 48.8876 0.725319 48.995 0.822986C49.0829 0.90112 49.1611 0.979254 49.2294 1.06715C49.8252 1.75082 50.1084 2.67866 49.9619 3.59673L43.7113 44.2262C43.5647 45.1736 42.9885 46.0038 42.1486 46.4726C41.3086 46.9414 40.3027 47 39.4139 46.6288L39.4237 46.6386ZM20.5153 37.0672L28.8659 40.5442C28.8659 40.5442 28.8659 40.5442 28.8756 40.5442L40.0292 45.1931C40.4687 45.3787 40.9766 45.3494 41.3965 45.115C41.8165 44.8806 42.0997 44.4606 42.1779 43.9918L48.4286 3.36233C48.4872 3.00096 48.409 2.63959 48.2332 2.33683L20.5153 37.0672ZM20.3102 38.6787V46.8828C20.3102 47.5957 20.7888 48.211 21.4725 48.3966C22.1561 48.5822 22.8789 48.2794 23.2305 47.6641L26.8148 41.3939L20.3102 38.6787Z" fill="black"/>
</svg>
