<svg width="50" height="45" viewBox="0 0 50 45" fill="none" xmlns="http://www.w3.org/2000/svg">
    <g clip-path="url(#clip0_536_8)">
        <path
            d="M23.6111 2.77778C23.6111 2.40942 23.7574 2.05615 24.0179 1.79568C24.2784 1.53522 24.6316 1.38889 25 1.38889C25.3684 1.38889 25.7216 1.53522 25.9821 1.79568C26.2426 2.05615 26.3889 2.40942 26.3889 2.77778C26.3889 3.14613 26.2426 3.4994 25.9821 3.75987C25.7216 4.02034 25.3684 4.16667 25 4.16667C24.6316 4.16667 24.2784 4.02034 24.0179 3.75987C23.7574 3.4994 23.6111 3.14613 23.6111 2.77778ZM27.7778 2.77778C27.7778 2.04107 27.4851 1.33453 26.9642 0.813592C26.4432 0.292658 25.7367 0 25 0C24.2633 0 23.5567 0.292658 23.0358 0.813592C22.5149 1.33453 22.2222 2.04107 22.2222 2.77778C22.2222 3.51449 22.5149 4.22103 23.0358 4.74196C23.5567 5.2629 24.2633 5.55556 25 5.55556C25.7367 5.55556 26.4432 5.2629 26.9642 4.74196C27.4851 4.22103 27.7778 3.51449 27.7778 2.77778ZM24.3056 25V37.4826C17.7257 37.1181 12.5 31.6753 12.5 25C12.5 18.099 18.099 12.5 25 12.5C31.901 12.5 37.5 18.099 37.5 25C37.5 31.6667 32.2743 37.1181 25.6944 37.4826V25C25.6944 24.6181 25.3819 24.3056 25 24.3056C24.6181 24.3056 24.3056 24.6181 24.3056 25ZM25 38.8889C28.6836 38.8889 32.2163 37.4256 34.8209 34.8209C37.4256 32.2163 38.8889 28.6836 38.8889 25C38.8889 21.3164 37.4256 17.7837 34.8209 15.1791C32.2163 12.5744 28.6836 11.1111 25 11.1111C21.3164 11.1111 17.7837 12.5744 15.1791 15.1791C12.5744 17.7837 11.1111 21.3164 11.1111 25C11.1111 28.6836 12.5744 32.2163 15.1791 34.8209C17.7837 37.4256 21.3164 38.8889 25 38.8889ZM47.2222 23.6111C47.5906 23.6111 47.9438 23.7574 48.2043 24.0179C48.4648 24.2784 48.6111 24.6316 48.6111 25C48.6111 25.3684 48.4648 25.7216 48.2043 25.9821C47.9438 26.2426 47.5906 26.3889 47.2222 26.3889C46.8539 26.3889 46.5006 26.2426 46.2401 25.9821C45.9797 25.7216 45.8333 25.3684 45.8333 25C45.8333 24.6316 45.9797 24.2784 46.2401 24.0179C46.5006 23.7574 46.8539 23.6111 47.2222 23.6111ZM47.2222 27.7778C47.9589 27.7778 48.6655 27.4851 49.1864 26.9642C49.7073 26.4432 50 25.7367 50 25C50 24.2633 49.7073 23.5567 49.1864 23.0358C48.6655 22.5149 47.9589 22.2222 47.2222 22.2222C46.4855 22.2222 45.779 22.5149 45.258 23.0358C44.7371 23.5567 44.4444 24.2633 44.4444 25C44.4444 25.7367 44.7371 26.4432 45.258 26.9642C45.779 27.4851 46.4855 27.7778 47.2222 27.7778ZM1.38889 25C1.38889 24.6316 1.53522 24.2784 1.79568 24.0179C2.05615 23.7574 2.40942 23.6111 2.77778 23.6111C3.14613 23.6111 3.4994 23.7574 3.75987 24.0179C4.02034 24.2784 4.16667 24.6316 4.16667 25C4.16667 25.3684 4.02034 25.7216 3.75987 25.9821C3.4994 26.2426 3.14613 26.3889 2.77778 26.3889C2.40942 26.3889 2.05615 26.2426 1.79568 25.9821C1.53522 25.7216 1.38889 25.3684 1.38889 25ZM5.55556 25C5.55556 24.2633 5.2629 23.5567 4.74196 23.0358C4.22103 22.5149 3.51449 22.2222 2.77778 22.2222C2.04107 22.2222 1.33453 22.5149 0.813592 23.0358C0.292658 23.5567 0 24.2633 0 25C0 25.7367 0.292658 26.4432 0.813592 26.9642C1.33453 27.4851 2.04107 27.7778 2.77778 27.7778C3.51449 27.7778 4.22103 27.4851 4.74196 26.9642C5.2629 26.4432 5.55556 25.7367 5.55556 25ZM8.33333 6.94444C8.70169 6.94444 9.05496 7.09077 9.31543 7.35124C9.57589 7.61171 9.72222 7.96498 9.72222 8.33333C9.72222 8.70169 9.57589 9.05496 9.31543 9.31543C9.05496 9.57589 8.70169 9.72222 8.33333 9.72222C7.96498 9.72222 7.61171 9.57589 7.35124 9.31543C7.09077 9.05496 6.94444 8.70169 6.94444 8.33333C6.94444 7.96498 7.09077 7.61171 7.35124 7.35124C7.61171 7.09077 7.96498 6.94444 8.33333 6.94444ZM8.33333 11.1111C9.07005 11.1111 9.77658 10.8185 10.2975 10.2975C10.8185 9.77658 11.1111 9.07005 11.1111 8.33333C11.1111 7.59662 10.8185 6.89008 10.2975 6.36915C9.77658 5.84821 9.07005 5.55556 8.33333 5.55556C7.59662 5.55556 6.89008 5.84821 6.36915 6.36915C5.84821 6.89008 5.55556 7.59662 5.55556 8.33333C5.55556 9.07005 5.84821 9.77658 6.36915 10.2975C6.89008 10.8185 7.59662 11.1111 8.33333 11.1111ZM40.2778 8.33333C40.2778 7.96498 40.4241 7.61171 40.6846 7.35124C40.945 7.09077 41.2983 6.94444 41.6667 6.94444C42.035 6.94444 42.3883 7.09077 42.6488 7.35124C42.9092 7.61171 43.0556 7.96498 43.0556 8.33333C43.0556 8.70169 42.9092 9.05496 42.6488 9.31543C42.3883 9.57589 42.035 9.72222 41.6667 9.72222C41.2983 9.72222 40.945 9.57589 40.6846 9.31543C40.4241 9.05496 40.2778 8.70169 40.2778 8.33333ZM44.4444 8.33333C44.4444 7.59662 44.1518 6.89008 43.6308 6.36915C43.1099 5.84821 42.4034 5.55556 41.6667 5.55556C40.93 5.55556 40.2234 5.84821 39.7025 6.36915C39.1815 6.89008 38.8889 7.59662 38.8889 8.33333C38.8889 9.07005 39.1815 9.77658 39.7025 10.2975C40.2234 10.8185 40.93 11.1111 41.6667 11.1111C42.4034 11.1111 43.1099 10.8185 43.6308 10.2975C44.1518 9.77658 44.4444 9.07005 44.4444 8.33333ZM8.33333 40.2778C8.70169 40.2778 9.05496 40.4241 9.31543 40.6846C9.57589 40.945 9.72222 41.2983 9.72222 41.6667C9.72222 42.035 9.57589 42.3883 9.31543 42.6488C9.05496 42.9092 8.70169 43.0556 8.33333 43.0556C7.96498 43.0556 7.61171 42.9092 7.35124 42.6488C7.09077 42.3883 6.94444 42.035 6.94444 41.6667C6.94444 41.2983 7.09077 40.945 7.35124 40.6846C7.61171 40.4241 7.96498 40.2778 8.33333 40.2778ZM8.33333 44.4444C9.07005 44.4444 9.77658 44.1518 10.2975 43.6308C10.8185 43.1099 11.1111 42.4034 11.1111 41.6667C11.1111 40.93 10.8185 40.2234 10.2975 39.7025C9.77658 39.1815 9.07005 38.8889 8.33333 38.8889C7.59662 38.8889 6.89008 39.1815 6.36915 39.7025C5.84821 40.2234 5.55556 40.93 5.55556 41.6667C5.55556 42.4034 5.84821 43.1099 6.36915 43.6308C6.89008 44.1518 7.59662 44.4444 8.33333 44.4444ZM40.2778 41.6667C40.2778 41.2983 40.4241 40.945 40.6846 40.6846C40.945 40.4241 41.2983 40.2778 41.6667 40.2778C42.035 40.2778 42.3883 40.4241 42.6488 40.6846C42.9092 40.945 43.0556 41.2983 43.0556 41.6667C43.0556 42.035 42.9092 42.3883 42.6488 42.6488C42.3883 42.9092 42.035 43.0556 41.6667 43.0556C41.2983 43.0556 40.945 42.9092 40.6846 42.6488C40.4241 42.3883 40.2778 42.035 40.2778 41.6667ZM44.4444 41.6667C44.4444 40.93 44.1518 40.2234 43.6308 39.7025C43.1099 39.1815 42.4034 38.8889 41.6667 38.8889C40.93 38.8889 40.2234 39.1815 39.7025 39.7025C39.1815 40.2234 38.8889 40.93 38.8889 41.6667C38.8889 42.4034 39.1815 43.1099 39.7025 43.6308C40.2234 44.1518 40.93 44.4444 41.6667 44.4444C42.4034 44.4444 43.1099 44.1518 43.6308 43.6308C44.1518 43.1099 44.4444 42.4034 44.4444 41.6667Z"
            fill="white" />
    </g>
    <defs>
        <clipPath id="clip0_536_8">
            <rect width="50" height="44.4444" fill="white" />
        </clipPath>
    </defs>
</svg>