<svg width="50" height="36" viewBox="0 0 50 36" fill="none" xmlns="http://www.w3.org/2000/svg">
<path d="M0 31.2539C0 22.138 0 13.0234 0 3.90755C0.145833 3.44531 0.231773 2.95443 0.445314 2.52604C1.31901 0.77474 2.78906 0 4.71745 0C18.2396 0.00260417 31.7617 0.00130208 45.2839 0.00130208C45.3971 0.00130208 45.5117 -0.00130208 45.625 0.00390625C47.0339 0.0651042 48.1953 0.613281 49.0807 1.73307C49.5911 2.3776 49.8125 3.13281 50 3.90755V31.2539C49.8555 31.7148 49.7695 32.2057 49.5573 32.6328C48.6849 34.3841 47.2135 35.1615 45.2865 35.1615C31.763 35.1589 18.2409 35.1615 4.71745 35.1615C4.60417 35.1615 4.48958 35.1641 4.3763 35.1589C2.92838 35.095 1.6901 34.5547 0.881509 33.3385C0.471353 32.7214 0.286458 31.9544 0 31.2552V31.2539ZM5.06641 2.95312C5.16276 3.0651 5.20182 3.11719 5.24739 3.16146C10.7617 8.64844 16.2695 14.1419 21.8034 19.6081C22.2747 20.0742 22.8815 20.4766 23.5013 20.707C25.3398 21.3906 26.9414 20.8854 28.3086 19.5247C33.7409 14.1172 39.1758 8.71224 44.6094 3.30599C44.707 3.20964 44.7956 3.10417 44.9349 2.95312H5.06641ZM5.33333 32.1888H44.6497C40.6211 28.0781 36.5013 23.875 32.3255 19.6133C31.6055 20.3477 30.9492 21.0456 30.263 21.7109C28.1914 23.7214 25.75 24.3854 22.9531 23.6432C21.6654 23.3008 20.5885 22.5833 19.6589 21.6406C19.0104 20.9831 18.3659 20.3229 17.6654 19.6081C13.487 23.8711 9.36849 28.0729 5.33333 32.1901V32.1888ZM2.95573 30.0312L3.07682 30.1107C7.20052 25.9115 11.3229 21.7122 15.3359 17.6263C11.276 13.5026 7.14193 9.30208 2.95573 5.05078V30.0312ZM47.0508 5.13542C47.0143 5.11198 46.9779 5.08854 46.9414 5.0651C42.8034 9.26823 38.6654 13.4714 34.5117 17.6901C38.6354 21.7878 42.8112 25.9375 47.0508 30.151V5.13542Z" fill="black"/>
</svg>
