<svg width="50" height="40" viewBox="0 0 50 40" fill="none" xmlns="http://www.w3.org/2000/svg">
<path d="M3.44531 0.0912273C3.14844 -0.0884602 2.76562 0.0131023 2.58594 0.302165C2.40625 0.591227 2.50781 0.981852 2.79687 1.16154L9.04688 4.91154C9.34375 5.09123 9.72656 4.98966 9.90625 4.7006C10.0859 4.41154 9.98437 4.02091 9.69531 3.84123L3.44531 0.0912273ZM47.1953 1.16154C47.4922 0.981852 47.5859 0.59904 47.4062 0.302165C47.2266 0.00528978 46.8437 -0.0884602 46.5469 0.0912273L40.2969 3.84123C40 4.02091 39.9062 4.40373 40.0859 4.7006C40.2656 4.99748 40.6484 5.09123 40.9453 4.91154L47.1953 1.16154ZM0.625 12.5053C0.28125 12.5053 0 12.7865 0 13.1303C0 13.474 0.28125 13.7553 0.625 13.7553H6.875C7.21875 13.7553 7.5 13.474 7.5 13.1303C7.5 12.7865 7.21875 12.5053 6.875 12.5053H0.625ZM43.125 12.5053C42.7812 12.5053 42.5 12.7865 42.5 13.1303C42.5 13.474 42.7812 13.7553 43.125 13.7553H49.375C49.7188 13.7553 50 13.474 50 13.1303C50 12.7865 49.7188 12.5053 49.375 12.5053H43.125ZM9.69531 21.1694C9.99219 20.9897 10.0859 20.6069 9.90625 20.31C9.72656 20.0131 9.34375 19.9194 9.04688 20.099L2.79687 23.849C2.5 24.0287 2.40625 24.4115 2.58594 24.7084C2.76562 25.0053 3.14844 25.099 3.44531 24.9194L9.69531 21.1694ZM40.9453 20.099C40.6484 19.9194 40.2656 20.0209 40.0859 20.31C39.9062 20.599 40.0078 20.9897 40.2969 21.1694L46.5469 24.9194C46.8437 25.099 47.2266 24.9975 47.4062 24.7084C47.5859 24.4194 47.4844 24.0287 47.1953 23.849L40.9453 20.099ZM37.5 13.7553C37.5 16.4037 36.6797 18.8569 35.2734 20.8803C34.9219 21.3881 34.5312 21.9194 34.1406 22.4584C33.1641 23.8022 32.1172 25.2319 31.3047 26.7084C30.7266 27.7631 30.3984 28.8803 30.2109 30.0053H31.4844C31.6563 29.0678 31.9453 28.1537 32.4062 27.31C33.1797 25.9037 34.1406 24.5834 35.1016 23.2631C35.5078 22.7084 35.9141 22.1537 36.3047 21.5912C37.8516 19.3647 38.7578 16.6694 38.7578 13.7553C38.75 6.16154 32.5937 0.00528979 25 0.00528979C17.4063 0.00528979 11.25 6.16154 11.25 13.7553C11.25 16.6694 12.1562 19.3725 13.7031 21.5912C14.0937 22.1537 14.5 22.7084 14.9063 23.2631C15.8672 24.5756 16.8281 25.8959 17.6016 27.31C18.0625 28.1537 18.3516 29.0678 18.5234 30.0053H19.7891C19.6016 28.8803 19.2734 27.7631 18.6953 26.7084C17.8828 25.224 16.8438 23.7944 15.8594 22.4584C15.4688 21.9194 15.0781 21.3881 14.7266 20.8803C13.3203 18.8569 12.5 16.4037 12.5 13.7553C12.5 6.84904 18.0937 1.25529 25 1.25529C31.9063 1.25529 37.5 6.84904 37.5 13.7553ZM17.5 13.1303C17.5 9.33341 20.5781 6.25529 24.375 6.25529C24.7188 6.25529 25 5.97404 25 5.63029C25 5.28654 24.7188 5.00529 24.375 5.00529C19.8906 5.00529 16.25 8.64591 16.25 13.1303C16.25 13.474 16.5312 13.7553 16.875 13.7553C17.2188 13.7553 17.5 13.474 17.5 13.1303ZM25 38.7553C22.2422 38.7553 20 36.5131 20 33.7553H30C30 36.5131 27.7578 38.7553 25 38.7553ZM18.75 33.3412V33.7553C18.75 37.2084 21.5469 40.0053 25 40.0053C28.4531 40.0053 31.25 37.2084 31.25 33.7553V33.3412C31.25 32.8803 30.875 32.5053 30.4141 32.5053H19.5859C19.125 32.5053 18.75 32.8803 18.75 33.3412Z" fill="black"/>
</svg>
