<svg width="50" height="63" viewBox="0 0 50 63" fill="none" xmlns="http://www.w3.org/2000/svg">
<path d="M25.0569 0C37.2211 0.0551269 47.566 8.83921 49.6892 20.8206C50.4956 25.3726 49.6892 29.6016 47.7755 33.7188C45.3168 39.0078 42.0313 43.766 38.4669 48.3463C34.8238 53.0289 30.9051 57.4706 26.7406 61.6965C25.5987 62.8557 24.4442 62.8573 23.3055 61.6902C17.1092 55.338 11.3366 48.6361 6.45867 41.2019C4.65996 38.4597 3.10695 35.5868 1.77446 32.5832C-0.474722 27.5131 -0.529849 22.3705 1.29249 17.2358C4.64105 7.80125 11.3429 2.2035 21.1681 0.327612C21.6138 0.242559 22.0706 0.200032 22.5242 0.165381C23.3685 0.100804 24.2127 0.0551284 25.0569 0.00157659V0ZM24.9797 57.5147C25.1388 57.3698 25.2081 57.3162 25.2648 57.2517C28.5173 53.4967 31.8533 49.8095 34.9971 45.9648C38.2543 41.9815 41.1303 37.721 43.485 33.1234C45.5594 29.0739 46.4194 24.9158 45.3641 20.367C42.822 9.39993 31.6769 2.17358 20.7539 4.65901C12.9936 6.42465 7.76754 11.1734 5.19232 18.7101C4.11184 21.8728 3.75115 25.1379 4.71036 28.4345C5.54671 31.3089 6.89968 33.9487 8.43064 36.5003C11.7556 42.0477 15.7515 47.0973 19.9852 51.9658C21.606 53.8291 23.2897 55.6388 24.9813 57.5131L24.9797 57.5147Z" fill="black"/>
<path d="M37.5306 23.9834C37.5369 30.8727 31.925 36.4972 25.0373 36.5035C18.1464 36.5098 12.5219 30.8979 12.5156 24.0133C12.5109 17.1209 18.1181 11.5011 25.0074 11.4948C31.9014 11.4885 37.5228 17.0956 37.5291 23.9834H37.5306ZM33.3615 23.9739C33.3536 19.4 29.5971 15.6608 25.0137 15.6639C20.435 15.6671 16.6895 19.4141 16.6848 23.9928C16.6816 28.5983 20.4523 32.3516 25.0641 32.3375C29.6365 32.3217 33.3678 28.5605 33.3599 23.9755L33.3615 23.9739Z" fill="black"/>
</svg>
