<svg width="50" height="45" viewBox="0 0 50 45" fill="none" xmlns="http://www.w3.org/2000/svg">
    <g clip-path="url(#clip0_536_2)">
        <path
            d="M27.7778 1.38889H5.55556C3.25521 1.38889 1.38889 3.25521 1.38889 5.55556V38.8889C1.38889 41.1892 3.25521 43.0556 5.55556 43.0556H27.0139C27.5174 43.533 28.0556 43.9757 28.6198 44.3837C28.342 44.4271 28.0642 44.4444 27.7778 44.4444H5.55556C2.49132 44.4444 0 41.9531 0 38.8889V5.55556C0 2.49132 2.49132 0 5.55556 0H27.7778C30.842 0 33.3333 2.49132 33.3333 5.55556V17.2396C32.8646 17.3698 32.3958 17.526 31.9444 17.7083V5.55556C31.9444 3.25521 30.0781 1.38889 27.7778 1.38889ZM5.55556 11.8056C5.55556 11.4236 5.86806 11.1111 6.25 11.1111H27.0833C27.4653 11.1111 27.7778 11.4236 27.7778 11.8056C27.7778 12.1875 27.4653 12.5 27.0833 12.5H6.25C5.86806 12.5 5.55556 12.1875 5.55556 11.8056ZM6.25 19.4444H24.3056C24.6875 19.4444 25 19.7569 25 20.1389C25 20.5208 24.6875 20.8333 24.3056 20.8333H6.25C5.86806 20.8333 5.55556 20.5208 5.55556 20.1389C5.55556 19.7569 5.86806 19.4444 6.25 19.4444ZM6.25 27.7778H18.75C19.1319 27.7778 19.4444 28.0903 19.4444 28.4722C19.4444 28.8542 19.1319 29.1667 18.75 29.1667H6.25C5.86806 29.1667 5.55556 28.8542 5.55556 28.4722C5.55556 28.0903 5.86806 27.7778 6.25 27.7778ZM48.6111 31.9444C48.6111 28.9976 47.4405 26.1714 45.3567 24.0877C43.273 22.004 40.4468 20.8333 37.5 20.8333C34.5531 20.8333 31.727 22.004 29.6433 24.0877C27.5595 26.1714 26.3889 28.9976 26.3889 31.9444C26.3889 34.8913 27.5595 37.7174 29.6433 39.8012C31.727 41.8849 34.5531 43.0556 37.5 43.0556C40.4468 43.0556 43.273 41.8849 45.3567 39.8012C47.4405 37.7174 48.6111 34.8913 48.6111 31.9444ZM25 31.9444C25 28.6292 26.317 25.4498 28.6612 23.1056C31.0054 20.7614 34.1848 19.4444 37.5 19.4444C40.8152 19.4444 43.9946 20.7614 46.3388 23.1056C48.683 25.4498 50 28.6292 50 31.9444C50 35.2596 48.683 38.4391 46.3388 40.7833C43.9946 43.1275 40.8152 44.4444 37.5 44.4444C34.1848 44.4444 31.0054 43.1275 28.6612 40.7833C26.317 38.4391 25 35.2596 25 31.9444ZM37.5 27.7778C37.1316 27.7778 36.7784 27.6314 36.5179 27.371C36.2574 27.1105 36.1111 26.7572 36.1111 26.3889C36.1111 26.0205 36.2574 25.6673 36.5179 25.4068C36.7784 25.1463 37.1316 25 37.5 25C37.8684 25 38.2216 25.1463 38.4821 25.4068C38.7426 25.6673 38.8889 26.0205 38.8889 26.3889C38.8889 26.7572 38.7426 27.1105 38.4821 27.371C38.2216 27.6314 37.8684 27.7778 37.5 27.7778ZM35.4167 38.1944C35.4167 37.8125 35.7292 37.5 36.1111 37.5H36.8056V31.25H36.1111C35.7292 31.25 35.4167 30.9375 35.4167 30.5556C35.4167 30.1736 35.7292 29.8611 36.1111 29.8611H37.5C37.8819 29.8611 38.1944 30.1736 38.1944 30.5556V37.5H38.8889C39.2708 37.5 39.5833 37.8125 39.5833 38.1944C39.5833 38.5764 39.2708 38.8889 38.8889 38.8889H37.5H36.1111C35.7292 38.8889 35.4167 38.5764 35.4167 38.1944Z"
            fill="white" />
    </g>
    <defs>
        <clipPath id="clip0_536_2">
            <rect width="50" height="44.4444" fill="white" />
        </clipPath>
    </defs>
</svg>