<svg width="50" height="45" viewBox="0 0 50 45" fill="none" xmlns="http://www.w3.org/2000/svg">
    <g clip-path="url(#clip0_536_6)">
        <path
            d="M47.5868 7.31793L30.7205 24.1842L25.8073 19.271L42.6736 2.40473C44.0278 1.05056 46.2326 1.05056 47.5868 2.40473C48.941 3.7589 48.941 5.95508 47.5868 7.31793ZM29.7396 25.1651L27.4566 27.4481L22.934 31.9707L22.7344 32.1704L17.8212 27.2572L22.5434 22.5349L24.8264 20.252L29.7396 25.1651ZM14.5833 27.778C15.3038 27.778 16.0069 27.8822 16.6667 28.0645L21.9358 33.3335C22.1267 33.9933 22.2222 34.6964 22.2222 35.4169C22.2222 39.436 19.1233 42.7259 15.1823 43.0297C15.1215 43.0384 15.0694 43.0384 15.0174 43.0558H14.5833H2.77778C2.01389 43.0558 1.38889 42.4308 1.38889 41.6669C1.38889 40.903 2.01389 40.278 2.77778 40.278H3.125C4.39236 40.278 5.39931 39.6096 6.04167 38.7676C6.67535 37.9342 7.01389 36.8579 6.96181 35.7901C6.95312 35.6686 6.95312 35.5471 6.95312 35.4169C6.95312 31.1981 10.3733 27.778 14.592 27.778H14.5833ZM23.4028 33.4638L48.5677 8.29883C50.4687 6.39779 50.4687 3.32487 48.5677 1.42383C46.6667 -0.477214 43.5937 -0.477214 41.6927 1.42383L16.5191 26.5974C15.8941 26.4585 15.2431 26.3891 14.5833 26.3891C9.60069 26.3891 5.55556 30.4342 5.55556 35.4169C5.55556 35.5645 5.55556 35.712 5.56424 35.8509C5.63368 37.3353 4.60938 38.8891 3.11632 38.8891H2.77778C1.24132 38.8891 0 40.1304 0 41.6669C0 43.2033 1.24132 44.4447 2.77778 44.4447H14.5833H15.2604C15.2691 44.4447 15.2778 44.436 15.2778 44.4273C15.2778 44.4186 15.2865 44.4099 15.2865 44.4099C19.9392 44.0454 23.6111 40.1565 23.6111 35.4082C23.6111 34.7398 23.5417 34.0888 23.4028 33.4551V33.4638ZM13.9149 1.26758C12.2917 -0.355686 9.65278 -0.355686 8.02083 1.26758L4.04514 5.25195C2.42187 6.87522 2.42187 9.5141 4.04514 11.146L15.5556 22.6478L16.5365 21.6669L11.8142 16.9447L19.7222 9.03668L24.4444 13.7589L25.4253 12.778L13.9149 1.26758ZM36.224 25.5471L40.8247 30.1478C41.7274 31.0506 42.3872 32.1704 42.7517 33.3943L45.4948 42.7259L36.1719 39.9829C34.9479 39.6183 33.8281 38.9585 32.9253 38.0558L28.3247 33.4551L27.3437 34.436L31.9444 39.0367C33.0122 40.1044 34.3316 40.8856 35.7812 41.311L46.3368 44.4186C46.5799 44.4881 46.8403 44.4273 47.0226 44.245C47.2049 44.0627 47.2656 43.8023 47.1962 43.5592L44.0885 33.0037C43.6632 31.554 42.8819 30.2346 41.8142 29.1669L37.2135 24.5662L36.2326 25.5471H36.224ZM12.934 2.24848L18.7413 8.05577L10.8333 15.9638L5.02604 10.1565C3.94097 9.0714 3.94097 7.30924 5.02604 6.22417L9.00174 2.24848C10.0868 1.16341 11.849 1.16341 12.934 2.24848Z"
            fill="white" />
    </g>
    <defs>
        <clipPath id="clip0_536_6">
            <rect width="50" height="44.4444" fill="white" />
        </clipPath>
    </defs>
</svg>