<svg width="50" height="51" viewBox="0 0 50 51" fill="none" xmlns="http://www.w3.org/2000/svg">
<path d="M26.5939 50.0551H23.4653C23.34 50.0277 23.2159 49.9846 23.0893 49.9742C18.0152 49.5694 13.4621 47.8106 9.49268 44.6298C4.54526 40.6656 1.48592 35.5511 0.374745 29.2953C0.215445 28.4009 0.124045 27.496 0 26.595C0 25.5517 0 24.5098 0 23.4665C0.157994 22.3736 0.274203 21.2742 0.480509 20.1904C2.52659 9.44944 11.6915 1.12016 22.567 0.122581C27.9649 -0.372292 33.0899 0.608312 37.6978 3.48223C46.5742 9.01854 50.6925 17.1023 49.9051 27.5352C49.4978 32.9239 47.3028 37.6533 43.6925 41.6802C39.834 45.9826 35.042 48.6632 29.3385 49.6739C28.4284 49.8358 27.5066 49.9285 26.59 50.0538L26.5939 50.0551ZM2.92745 25.0242C2.92223 37.2133 12.8119 47.1107 25.0152 47.129C37.1181 47.1473 47.1057 37.2563 47.12 25.2397C47.1357 12.8665 37.2996 2.93774 25.0296 2.94035C12.8223 2.94296 2.93268 12.8235 2.92745 25.0242Z" fill="black"/>
<path d="M32.9264 38.5347C30.9808 38.4589 29.239 38.0333 27.552 37.4326C19.6471 34.6175 14.4281 29.2039 12.0177 21.154C11.6573 19.9502 11.4745 18.6745 11.3661 17.4183C11.2577 16.1661 11.7617 15.0641 12.651 14.1553C13.061 13.7362 13.4514 13.2987 13.8561 12.8731C15.4661 11.1808 17.6571 11.0947 19.3781 12.6642C19.9082 13.1473 20.4279 13.6408 20.9306 14.1514C22.3578 15.6034 22.4335 17.75 21.0977 19.279C20.2503 20.2479 19.3885 21.1958 18.0593 21.5523C17.4782 21.7077 17.3999 22.0746 17.7107 22.7261C18.7513 24.9067 20.1119 26.8627 21.8642 28.5327C23.5551 30.144 25.4889 31.391 27.6303 32.3194C28.3263 32.621 28.5561 32.5479 28.8564 31.8663C29.3761 30.682 30.2105 29.7706 31.2459 29.0224C32.6391 28.0144 34.3457 28.0144 35.6723 29.1033C36.4258 29.721 37.1504 30.3921 37.7902 31.1233C38.8152 32.2946 39.079 33.7021 38.3595 35.0784C37.5004 36.721 36.2429 38.0111 34.2974 38.3728C33.8038 38.4642 33.2972 38.4929 32.9303 38.5347H32.9264Z" fill="black"/>
</svg>
