<svg width="50" height="44" viewBox="0 0 50 44" fill="none" xmlns="http://www.w3.org/2000/svg">
<path d="M10.9375 7.03125V1.5625H6.25C3.66211 1.5625 1.5625 3.66211 1.5625 6.25V7.03125H10.9375ZM1.5625 8.59375V16.4062H10.9375V8.59375H1.5625ZM0 17.9688V17.1875V16.4062V8.59375V7.8125V7.03125V6.25C0 2.80273 2.80273 0 6.25 0H10.9375H11.7188H12.5H37.5H38.2812H39.0625H43.75C47.1973 0 50 2.80273 50 6.25V7.03125V7.8125V8.59375V16.4062V17.1875V17.9688V25.7812V26.5625V27.3438V35.1562V35.9375V36.7188V37.5C50 40.9473 47.1973 43.75 43.75 43.75H39.0625H38.2812H37.5H12.5H11.7188H10.9375H6.25C2.80273 43.75 0 40.9473 0 37.5V36.7188V35.9375V35.1562V27.3438V26.5625V25.7812V17.9688ZM1.5625 25.7812H10.9375V17.9688H1.5625V25.7812ZM1.5625 27.3438V35.1562H10.9375V27.3438H1.5625ZM10.9375 36.7188H1.5625V37.5C1.5625 40.0879 3.66211 42.1875 6.25 42.1875H10.9375V36.7188ZM12.5 42.1875H37.5V35.9375V26.5625V17.1875V7.8125V1.5625H12.5V7.8125V17.1875V26.5625V35.9375V42.1875ZM39.0625 1.5625V7.03125H48.4375V6.25C48.4375 3.66211 46.3379 1.5625 43.75 1.5625H39.0625ZM48.4375 8.59375H39.0625V16.4062H48.4375V8.59375ZM48.4375 17.9688H39.0625V25.7812H48.4375V17.9688ZM48.4375 27.3438H39.0625V35.1562H48.4375V27.3438ZM48.4375 36.7188H39.0625V42.1875H43.75C46.3379 42.1875 48.4375 40.0879 48.4375 37.5V36.7188Z" fill="black"/>
</svg>
