<svg width="50" height="45" viewBox="0 0 50 45" fill="none" xmlns="http://www.w3.org/2000/svg">
<path d="M1.38889 11.1111C1.38889 5.73785 5.73785 1.38889 11.1111 1.38889C15.2431 1.38889 18.7847 3.96701 20.1823 7.61285C20.2865 7.88194 20.5469 8.05556 20.8333 8.05556C21.1198 8.05556 21.3802 7.88194 21.4844 7.61285C22.8819 3.96701 26.4236 1.38889 30.5556 1.38889C35.9288 1.38889 40.2778 5.73785 40.2778 11.1111C40.2778 16.4844 35.9288 20.8333 30.5556 20.8333H11.1111C5.73785 20.8333 1.38889 16.4844 1.38889 11.1111ZM11.1111 0C4.97396 0 0 4.97396 0 11.1111C0 17.2483 4.97396 22.2222 11.1111 22.2222H30.5556C36.6927 22.2222 41.6667 17.2483 41.6667 11.1111C41.6667 4.97396 36.6927 0 30.5556 0C26.3715 0 22.7257 2.30903 20.8333 5.72917C18.941 2.30903 15.2951 0 11.1111 0ZM46.5712 44.4444C48.4635 44.4444 50 42.908 50 41.0156V25.3385C50 23.342 48.2118 21.8316 46.2413 22.1615C45.9635 22.2049 45.7031 22.2917 45.4514 22.4045L38.8889 25.3472V26.8663L46.0243 23.6545C46.1719 23.5937 46.3194 23.5417 46.4757 23.5156C47.5955 23.3333 48.6111 24.1927 48.6111 25.3299V41.0156C48.6111 42.1441 47.6997 43.0556 46.5712 43.0556C46.2847 43.0556 45.9983 42.9948 45.7292 42.8733L38.8889 39.8003V41.3194L45.1649 44.1406C45.6076 44.3403 46.0851 44.4444 46.5712 44.4444ZM5.55556 29.1667H2.77778C2.01389 29.1667 1.38889 28.5417 1.38889 27.7778C1.38889 27.0139 2.01389 26.3889 2.77778 26.3889H5.55556H11.1111H30.5556C32.8559 26.3889 34.7222 28.2552 34.7222 30.5556V38.8889C34.7222 41.1892 32.8559 43.0556 30.5556 43.0556H11.1111C8.81076 43.0556 6.94444 41.1892 6.94444 38.8889V30.5556C6.94444 29.7917 6.31944 29.1667 5.55556 29.1667ZM4.16667 30.5556H5.55556V31.9444V38.8889C5.55556 41.9531 8.04687 44.4444 11.1111 44.4444H30.5556C33.6198 44.4444 36.1111 41.9531 36.1111 38.8889V30.5556C36.1111 27.4913 33.6198 25 30.5556 25H11.1111H5.55556H2.77778C1.24132 25 0 26.2413 0 27.7778C0 29.3142 1.24132 30.5556 2.77778 30.5556H4.16667ZM11.1111 6.94444C12.2162 6.94444 13.276 7.38343 14.0574 8.16483C14.8388 8.94623 15.2778 10.006 15.2778 11.1111C15.2778 12.2162 14.8388 13.276 14.0574 14.0574C13.276 14.8388 12.2162 15.2778 11.1111 15.2778C10.006 15.2778 8.94623 14.8388 8.16483 14.0574C7.38343 13.276 6.94444 12.2162 6.94444 11.1111C6.94444 10.006 7.38343 8.94623 8.16483 8.16483C8.94623 7.38343 10.006 6.94444 11.1111 6.94444ZM11.1111 16.6667C12.5845 16.6667 13.9976 16.0814 15.0395 15.0395C16.0814 13.9976 16.6667 12.5845 16.6667 11.1111C16.6667 9.63769 16.0814 8.22461 15.0395 7.18274C13.9976 6.14087 12.5845 5.55556 11.1111 5.55556C9.63769 5.55556 8.22461 6.14087 7.18274 7.18274C6.14087 8.22461 5.55556 9.63769 5.55556 11.1111C5.55556 12.5845 6.14087 13.9976 7.18274 15.0395C8.22461 16.0814 9.63769 16.6667 11.1111 16.6667ZM26.3889 11.1111C26.3889 10.5639 26.4967 10.0221 26.7061 9.5166C26.9155 9.01107 27.2224 8.55174 27.6093 8.16483C27.9962 7.77792 28.4555 7.47101 28.961 7.26161C29.4666 7.05222 30.0084 6.94444 30.5556 6.94444C31.1027 6.94444 31.6445 7.05222 32.1501 7.26161C32.6556 7.47101 33.1149 7.77792 33.5018 8.16483C33.8887 8.55174 34.1957 9.01107 34.4051 9.5166C34.6144 10.0221 34.7222 10.5639 34.7222 11.1111C34.7222 11.6583 34.6144 12.2001 34.4051 12.7056C34.1957 13.2111 33.8887 13.6705 33.5018 14.0574C33.1149 14.4443 32.6556 14.7512 32.1501 14.9606C31.6445 15.17 31.1027 15.2778 30.5556 15.2778C30.0084 15.2778 29.4666 15.17 28.961 14.9606C28.4555 14.7512 27.9962 14.4443 27.6093 14.0574C27.2224 13.6705 26.9155 13.2111 26.7061 12.7056C26.4967 12.2001 26.3889 11.6583 26.3889 11.1111ZM36.1111 11.1111C36.1111 9.63769 35.5258 8.22461 34.4839 7.18274C33.4421 6.14087 32.029 5.55556 30.5556 5.55556C29.0821 5.55556 27.6691 6.14087 26.6272 7.18274C25.5853 8.22461 25 9.63769 25 11.1111C25 12.5845 25.5853 13.9976 26.6272 15.0395C27.6691 16.0814 29.0821 16.6667 30.5556 16.6667C32.029 16.6667 33.4421 16.0814 34.4839 15.0395C35.5258 13.9976 36.1111 12.5845 36.1111 11.1111Z" fill="black"/>
</svg>
