<svg width="50" height="45" viewBox="0 0 50 45" fill="none" xmlns="http://www.w3.org/2000/svg">
<path d="M30.559 21.1119C30.849 21.1119 31.0622 21.1119 31.2739 21.1119C34.8902 21.1119 38.5065 21.1119 42.1228 21.1119C46.7502 21.1135 49.9809 24.3316 49.995 28.9606C50.0029 31.384 50.0029 33.809 49.995 36.2325C49.9809 40.8457 46.7314 44.089 42.1213 44.0968C39.7167 44.1 37.312 44.1015 34.909 44.0968C30.4383 44.089 27.018 40.7062 27.0195 36.2387C27.0227 30.5313 27.043 24.8239 27.1183 19.1164C27.1528 16.4751 27.4929 13.8589 28.1905 11.2991C29.236 7.46329 31.625 4.64954 34.8745 2.49417C36.0125 1.73861 37.1741 1.01597 38.3419 0.305873C39.2793 -0.263146 40.3327 -0.0139061 40.8406 0.851379C41.3532 1.72607 41.0553 2.71519 40.1211 3.31556C38.7244 4.2122 37.3058 5.07748 35.9514 6.03369C33.6095 7.68588 32.1125 9.92904 31.4212 12.724C30.7456 15.4562 30.6359 18.2386 30.559 21.1119Z" fill="black"/>
<path d="M3.48829 21.112C3.77359 21.112 3.98521 21.112 4.19682 21.112C7.87272 21.112 11.5486 21.1042 15.2245 21.1136C19.0995 21.1246 22.1107 23.6405 22.824 27.4449C22.8632 27.6549 22.8945 27.8713 22.8961 28.0845C22.9086 30.9578 23.0105 33.8358 22.9023 36.7044C22.7487 40.8145 19.9475 43.7521 15.7857 44.0092C12.7697 44.1941 9.72086 44.1581 6.70333 43.9574C3.09327 43.7192 0.0349896 40.4414 0.0130439 36.8157C-0.0277123 30.3652 0.0287194 23.9116 0.158826 17.4628C0.212122 14.8638 0.698062 12.3008 1.62135 9.84136C2.81111 6.66708 5.04173 4.37376 7.78337 2.51779C8.93081 1.74185 10.1159 1.01608 11.2994 0.295006C12.1866 -0.245797 13.2086 -0.0200703 13.7197 0.784081C14.2636 1.64153 14.0065 2.68865 13.0958 3.27491C11.7837 4.12139 10.4482 4.93494 9.15654 5.81277C6.43685 7.6609 4.8019 10.2317 4.1592 13.453C3.65916 15.9564 3.51494 18.4848 3.48986 21.112H3.48829Z" fill="black"/>
</svg>
