<svg width="39" height="38" viewBox="0 0 39 38" fill="none" xmlns="http://www.w3.org/2000/svg">
    <path
        d="M18.5554 0.717385C18.8667 -0.178175 20.1333 -0.178173 20.4446 0.717387L24.5616 12.5616C24.6989 12.9566 25.0676 13.2245 25.4858 13.233L38.0225 13.4885C38.9704 13.5078 39.3618 14.7124 38.6063 15.2852L28.614 22.8608C28.2807 23.1134 28.1399 23.5469 28.261 23.9472L31.8921 35.9493C32.1666 36.8568 31.142 37.6012 30.3638 37.0597L20.0712 29.8975C19.7279 29.6586 19.2721 29.6586 18.9288 29.8975L8.63624 37.0597C7.858 37.6012 6.83335 36.8568 7.1079 35.9493L10.739 23.9472C10.8601 23.5469 10.7193 23.1134 10.386 22.8608L0.39373 15.2852C-0.361802 14.7124 0.0295798 13.5078 0.977504 13.4885L13.5142 13.233C13.9324 13.2245 14.3011 12.9566 14.4384 12.5616L18.5554 0.717385Z"
        fill="yellow" />
</svg>