<svg width="50" height="40" viewBox="0 0 50 40" fill="none" xmlns="http://www.w3.org/2000/svg">
    <g clip-path="url(#clip0_536_4)">
        <path
            d="M0 1.25V9.375C0 9.71875 0.28125 10 0.625 10C0.96875 10 1.25 9.71875 1.25 9.375V1.25H9.375C9.71875 1.25 10 0.96875 10 0.625C10 0.28125 9.71875 0 9.375 0H1.25C0.5625 0 0 0.5625 0 1.25ZM50 1.25C50 0.5625 49.4375 0 48.75 0H40.625C40.2812 0 40 0.28125 40 0.625C40 0.96875 40.2812 1.25 40.625 1.25H48.75V9.375C48.75 9.71875 49.0312 10 49.375 10C49.7188 10 50 9.71875 50 9.375V1.25ZM1.25 40H9.375C9.71875 40 10 39.7188 10 39.375C10 39.0312 9.71875 38.75 9.375 38.75H1.25V30.625C1.25 30.2812 0.96875 30 0.625 30C0.28125 30 0 30.2812 0 30.625V38.75C0 39.4375 0.5625 40 1.25 40ZM50 38.75V30.625C50 30.2812 49.7188 30 49.375 30C49.0312 30 48.75 30.2812 48.75 30.625V38.75H40.625C40.2812 38.75 40 39.0312 40 39.375C40 39.7188 40.2812 40 40.625 40H48.75C49.4375 40 50 39.4375 50 38.75ZM21.25 15C21.25 14.0054 21.6451 13.0516 22.3483 12.3483C23.0516 11.6451 24.0054 11.25 25 11.25C25.9946 11.25 26.9484 11.6451 27.6517 12.3483C28.3549 13.0516 28.75 14.0054 28.75 15C28.75 15.9946 28.3549 16.9484 27.6517 17.6517C26.9484 18.3549 25.9946 18.75 25 18.75C24.0054 18.75 23.0516 18.3549 22.3483 17.6517C21.6451 16.9484 21.25 15.9946 21.25 15ZM17.5 28.125C17.5 25.7109 19.4609 23.75 21.875 23.75H28.125C30.5391 23.75 32.5 25.7109 32.5 28.125C32.5 28.4688 32.2188 28.75 31.875 28.75H18.125C17.7812 28.75 17.5 28.4688 17.5 28.125ZM25 20C26.3261 20 27.5979 19.4732 28.5355 18.5355C29.4732 17.5979 30 16.3261 30 15C30 13.6739 29.4732 12.4021 28.5355 11.4645C27.5979 10.5268 26.3261 10 25 10C23.6739 10 22.4021 10.5268 21.4645 11.4645C20.5268 12.4021 20 13.6739 20 15C20 16.3261 20.5268 17.5979 21.4645 18.5355C22.4021 19.4732 23.6739 20 25 20ZM21.875 22.5C18.7656 22.5 16.25 25.0156 16.25 28.125C16.25 29.1641 17.0859 30 18.125 30H31.875C32.9141 30 33.75 29.1641 33.75 28.125C33.75 25.0156 31.2344 22.5 28.125 22.5H21.875ZM8.75 24.375C8.75 22.6484 10.1484 21.25 11.875 21.25H16.875C17.2188 21.25 17.5 20.9688 17.5 20.625C17.5 20.2812 17.2188 20 16.875 20H11.875C9.46094 20 7.5 21.9609 7.5 24.375C7.5 25.7578 8.61719 26.875 10 26.875H12.5C12.8438 26.875 13.125 26.5938 13.125 26.25C13.125 25.9062 12.8438 25.625 12.5 25.625H10C9.3125 25.625 8.75 25.0625 8.75 24.375ZM13.75 11.25C14.413 11.25 15.0489 11.5134 15.5178 11.9822C15.9866 12.4511 16.25 13.087 16.25 13.75C16.25 14.413 15.9866 15.0489 15.5178 15.5178C15.0489 15.9866 14.413 16.25 13.75 16.25C13.087 16.25 12.4511 15.9866 11.9822 15.5178C11.5134 15.0489 11.25 14.413 11.25 13.75C11.25 13.087 11.5134 12.4511 11.9822 11.9822C12.4511 11.5134 13.087 11.25 13.75 11.25ZM13.75 17.5C14.2425 17.5 14.7301 17.403 15.1851 17.2145C15.64 17.0261 16.0534 16.7499 16.4017 16.4017C16.7499 16.0534 17.0261 15.64 17.2145 15.1851C17.403 14.7301 17.5 14.2425 17.5 13.75C17.5 13.2575 17.403 12.7699 17.2145 12.3149C17.0261 11.86 16.7499 11.4466 16.4017 11.0983C16.0534 10.7501 15.64 10.4739 15.1851 10.2855C14.7301 10.097 14.2425 10 13.75 10C13.2575 10 12.7699 10.097 12.3149 10.2855C11.86 10.4739 11.4466 10.7501 11.0983 11.0983C10.7501 11.4466 10.4739 11.86 10.2855 12.3149C10.097 12.7699 10 13.2575 10 13.75C10 14.2425 10.097 14.7301 10.2855 15.1851C10.4739 15.64 10.7501 16.0534 11.0983 16.4017C11.4466 16.7499 11.86 17.0261 12.3149 17.2145C12.7699 17.403 13.2575 17.5 13.75 17.5ZM41.25 24.375C41.25 25.0625 40.6875 25.625 40 25.625H37.5C37.1562 25.625 36.875 25.9062 36.875 26.25C36.875 26.5938 37.1562 26.875 37.5 26.875H40C41.3828 26.875 42.5 25.7578 42.5 24.375C42.5 21.9609 40.5391 20 38.125 20H33.125C32.7812 20 32.5 20.2812 32.5 20.625C32.5 20.9688 32.7812 21.25 33.125 21.25H38.125C39.8516 21.25 41.25 22.6484 41.25 24.375ZM36.25 11.25C36.913 11.25 37.5489 11.5134 38.0178 11.9822C38.4866 12.4511 38.75 13.087 38.75 13.75C38.75 14.413 38.4866 15.0489 38.0178 15.5178C37.5489 15.9866 36.913 16.25 36.25 16.25C35.587 16.25 34.9511 15.9866 34.4822 15.5178C34.0134 15.0489 33.75 14.413 33.75 13.75C33.75 13.087 34.0134 12.4511 34.4822 11.9822C34.9511 11.5134 35.587 11.25 36.25 11.25ZM36.25 17.5C36.7425 17.5 37.2301 17.403 37.6851 17.2145C38.14 17.0261 38.5534 16.7499 38.9017 16.4017C39.2499 16.0534 39.5261 15.64 39.7145 15.1851C39.903 14.7301 40 14.2425 40 13.75C40 13.2575 39.903 12.7699 39.7145 12.3149C39.5261 11.86 39.2499 11.4466 38.9017 11.0983C38.5534 10.7501 38.14 10.4739 37.6851 10.2855C37.2301 10.097 36.7425 10 36.25 10C35.7575 10 35.2699 10.097 34.8149 10.2855C34.36 10.4739 33.9466 10.7501 33.5983 11.0983C33.2501 11.4466 32.9739 11.86 32.7855 12.3149C32.597 12.7699 32.5 13.2575 32.5 13.75C32.5 14.2425 32.597 14.7301 32.7855 15.1851C32.9739 15.64 33.2501 16.0534 33.5983 16.4017C33.9466 16.7499 34.36 17.0261 34.8149 17.2145C35.2699 17.403 35.7575 17.5 36.25 17.5Z"
            fill="white" />
    </g>
    <defs>
        <clipPath id="clip0_536_4">
            <rect width="50" height="40" fill="white" />
        </clipPath>
    </defs>
</svg>