<svg width="50" height="51" viewBox="0 0 50 51" fill="none" xmlns="http://www.w3.org/2000/svg">
<path d="M0 50.3036C1.14915 46.0943 2.26335 41.9884 3.39713 37.8866C3.49498 37.5344 3.45165 37.2645 3.27969 36.9514C-2.39756 26.7013 -0.0419402 13.6552 8.87307 6.04873C13.9632 1.70516 19.8725 -0.310753 26.5423 0.038745C37.6564 0.62031 47.104 8.74266 49.4387 19.647C52.1438 32.2905 44.8407 44.9144 32.5131 48.7546C26.0237 50.7761 19.7103 50.1568 13.6304 47.1064C13.3676 46.975 12.9902 46.9345 12.7078 47.0072C8.65917 48.0473 4.61757 49.1153 0.574576 50.175C0.412408 50.2183 0.246047 50.2477 0.00139776 50.3022L0 50.3036ZM5.97782 44.3845C6.13719 44.351 6.21828 44.3356 6.29656 44.316C8.53755 43.7303 10.7827 43.1599 13.0167 42.5448C13.5591 42.3952 13.9813 42.4441 14.4776 42.7307C20.5449 46.2201 26.8694 46.7331 33.2946 43.9567C42.2334 40.0927 47.0551 30.9792 45.4726 21.3162C43.9376 11.9441 35.6125 4.58642 26.1145 4.22714C20.8707 4.02862 16.1524 5.51888 12.0857 8.85449C7.3898 12.706 4.82308 17.7164 4.44422 23.7851C4.16323 28.2964 5.30958 32.4708 7.76586 36.2692C7.98255 36.6033 8.03148 36.8941 7.92243 37.2855C7.26538 39.6188 6.63768 41.9604 5.97782 44.3845Z" fill="black"/>
<path d="M17.0325 13.4539C18.1412 13.1645 18.6486 13.8621 19.0289 14.8491C19.5853 16.2974 20.1976 17.7234 20.8085 19.1507C21.014 19.6316 21.0042 20.0636 20.6939 20.4816C20.1948 21.1541 19.7083 21.8363 19.1813 22.4863C18.8485 22.896 18.8024 23.265 19.0736 23.7236C21.1063 27.1654 23.9554 29.6497 27.6699 31.1301C28.1536 31.3231 28.5506 31.2448 28.8805 30.8338C29.5027 30.0579 30.1373 29.2918 30.7525 28.5103C31.183 27.9651 31.4389 27.8211 32.047 28.0979C33.8197 28.9087 35.5783 29.7531 37.3188 30.6325C37.5299 30.7387 37.7117 31.1385 37.7061 31.3986C37.66 34.0394 36.8841 35.3185 34.0433 36.5096C32.437 37.1835 30.7734 37.0157 29.121 36.5544C23.1404 34.8838 18.7311 31.1148 15.1998 26.1547C14.0898 24.5945 13.0874 22.9854 12.6652 21.0897C12.0655 18.3874 12.7337 16.0486 14.7203 14.0998C15.3494 13.4819 16.1113 13.3505 17.0325 13.4567V13.4539Z" fill="black"/>
</svg>
